<svg width="30" height="22" viewBox="0 0 30 22" fill="none" xmlns="http://www.w3.org/2000/svg">
<path d="M25.8218 2.82854C25.399 2.16196 24.8005 1.65207 24.0906 1.35567C22.5495 0.710632 21.2242 0.279739 20.0383 0.0368722C19.2065 -0.132873 18.3828 0.294102 17.9869 1.09844L17.888 1.29952C17.0099 1.19832 16.0774 1.16438 15.0154 1.19245C13.9265 1.16503 12.9908 1.19832 12.1114 1.29952L12.0132 1.09844C11.6173 0.294102 10.7924 -0.132221 9.96239 0.037525C8.77655 0.279739 7.4506 0.710632 5.91013 1.35632C5.20087 1.65272 4.60232 2.16196 4.1789 2.82919C1.22616 7.48479 0.0690898 12.5066 0.641998 18.1827C0.662013 18.3818 0.768338 18.56 0.930329 18.6665C3.20195 20.1615 5.16773 21.1852 7.11662 21.889C7.93157 22.1861 8.83534 21.8538 9.31631 21.0866L10.1738 19.715C9.49081 19.446 8.82408 19.1274 8.18488 18.7468C7.88529 18.5685 7.78084 18.1696 7.95159 17.8569C8.12233 17.5429 8.50448 17.4325 8.80469 17.6134C10.7067 18.7455 12.857 19.3441 15.0229 19.3441C17.1888 19.3441 19.3391 18.7455 21.2411 17.6134C21.5406 17.4325 21.9228 17.5429 22.0942 17.8569C22.2649 18.1696 22.1605 18.5685 21.8609 18.7468C21.2004 19.1404 20.5099 19.4682 19.8025 19.7417L20.685 21.1141C21.0484 21.6788 21.6482 22 22.2662 22C22.4676 22 22.6708 21.9654 22.8685 21.8949C24.823 21.1904 26.7925 20.1654 29.0691 18.6671C29.2311 18.5607 29.3375 18.3818 29.3575 18.1833C29.9316 12.5066 28.7746 7.48414 25.8218 2.82854ZM11.005 14.1447C9.8004 14.1447 8.80907 12.82 8.80907 11.2101C8.80907 9.60008 9.8004 8.27541 11.005 8.27541C12.2096 8.27541 13.201 9.60008 13.201 11.2101C13.201 12.82 12.2096 14.1447 11.005 14.1447ZM19.1314 14.1277C17.9381 14.1277 16.9561 12.7952 16.9561 11.1755C16.9561 9.55569 17.9381 8.22318 19.1314 8.22318C20.3248 8.22318 21.3067 9.55569 21.3067 11.1755C21.3067 12.7952 20.3248 14.1277 19.1314 14.1277Z" fill="#D4BFF6"/>
</svg>
