<svg width="132" height="20" viewBox="0 0 132 20" fill="none" xmlns="http://www.w3.org/2000/svg">
<path d="M0.258537 1.80988H2.60916L7.35981 18.336L12.1105 1.80988H14.4611L9.41631 18.9476H5.30252L0.257751 1.80988H0.258537Z" fill="white"/>
<path d="M19.8823 6.21741C23.0173 6.21741 25.0252 8.12752 25.0252 11.4561V13.9277C25.0252 17.2586 23.0173 19.1687 19.8823 19.1687C16.7474 19.1687 14.7152 17.2586 14.7152 13.9277V11.4561C14.7152 8.12674 16.7482 6.21741 19.8823 6.21741ZM19.8823 17.2092C21.6941 17.2092 22.9428 16.4753 22.9428 13.9277V11.4561C22.9428 9.15551 21.6933 8.17457 19.8823 8.17457C18.0713 8.17457 16.7968 9.15551 16.7968 11.4561V13.9277C16.7968 16.4753 18.0698 17.2092 19.8823 17.2092Z" fill="white"/>
<path d="M28.2158 1.44293H30.5178V3.84077H28.2158V1.44293ZM28.3382 6.437H30.3947V18.9484H28.3382V6.437Z" fill="white"/>
<path d="M41.0779 1.80988H45.2168L51.8538 18.4575V1.80988H54.0083V18.9476H49.7236L43.234 2.42149V18.9476H41.0787V1.80988H41.0779Z" fill="white"/>
<path d="M57.6907 13.9277V11.4561C57.6907 8.12674 59.7237 6.21741 62.8579 6.21741C65.7959 6.21741 67.9269 7.88209 67.9756 11.4561V13.4399H59.7723V13.9284C59.7723 16.4761 61.0453 17.21 62.8579 17.21C64.3763 17.21 65.6493 16.6721 65.8697 15.0074H67.9513C67.7309 17.6507 65.6242 19.1695 62.8579 19.1695C59.7229 19.1695 57.6907 17.2594 57.6907 13.9284V13.9277ZM65.8948 11.6035V11.4561C65.8446 8.95791 64.4987 8.12674 62.8579 8.12674C61.0453 8.12674 59.7723 8.95791 59.7723 11.4561V11.6035H65.8948Z" fill="white"/>
<path d="M72.0243 15.8378V8.39571H70.1866V6.43619H72.0729V3.64551H74.1051V6.43619H77.1671V8.39571H74.1051V16.9897H77.2157V18.9476H75.3545C72.8807 18.9476 72.0243 17.5519 72.0243 15.8378Z" fill="white"/>
<path d="M87.9209 7.04856L85.5703 18.9476H81.7993L79.3004 6.43616H81.4808L83.7091 18.3352L86.0111 6.43616H89.8308L92.1327 18.3352L94.361 6.43616H96.5407L94.0434 18.9476H90.2715L87.9209 7.04856Z" fill="white"/>
<path d="M103.924 6.21741C107.059 6.21741 109.067 8.12752 109.067 11.4561V13.9277C109.067 17.2586 107.059 19.1687 103.924 19.1687C100.789 19.1687 98.7572 17.2586 98.7572 13.9277V11.4561C98.7572 8.12674 100.79 6.21741 103.924 6.21741ZM103.924 17.2092C105.736 17.2092 106.985 16.4753 106.985 13.9277V11.4561C106.985 9.15551 105.735 8.17457 103.924 8.17457C102.113 8.17457 100.839 9.15551 100.839 11.4561V13.9277C100.839 16.4753 102.112 17.2092 103.924 17.2092Z" fill="white"/>
<path d="M112.502 6.43621H114.583V7.88134C115.195 6.97412 116.102 6.43621 117.768 6.43621H119.015V8.51726H117.768C115.881 8.51726 114.583 9.56955 114.583 12.165V18.9469H112.502V6.43542V6.43621Z" fill="white"/>
<path d="M124.751 12.1901L131.999 18.703V18.9484H129.307L124.14 14.3213V18.9484H122.083V0.830505H124.14V10.2321L128.964 6.43618H131.853V6.68161L124.751 12.1893V12.1901Z" fill="white"/>
</svg>
