<svg width="85" height="36" viewBox="0 0 85 36" fill="none" xmlns="http://www.w3.org/2000/svg">
<path d="M60.4385 4.20657C60.3844 4.11326 60.3271 4.0223 60.2691 3.93213C60.2597 3.91723 60.2495 3.90155 60.2401 3.88744C60.182 3.79726 60.1209 3.70866 60.0581 3.62083C60.0471 3.60594 60.0346 3.58869 60.0236 3.57222C59.964 3.49145 59.9028 3.41226 59.8401 3.33385C59.8236 3.31189 59.8071 3.28915 59.7891 3.26876C59.7334 3.20055 59.6769 3.13311 59.6181 3.06725C59.5914 3.03666 59.5656 3.00452 59.5389 2.9755C59.4903 2.9214 59.4401 2.86886 59.3891 2.81554C59.3499 2.77555 59.313 2.73478 59.2722 2.69479C59.233 2.65558 59.1914 2.61716 59.1514 2.57795C59.0989 2.52777 59.0471 2.47837 58.993 2.42976C58.9624 2.4031 58.9318 2.37722 58.9012 2.34899C58.8346 2.29175 58.7679 2.23529 58.6997 2.17962C58.6785 2.16159 58.655 2.14512 58.6346 2.12708C58.5554 2.06436 58.4761 2.00319 58.3961 1.94517C58.3797 1.93262 58.3632 1.92165 58.3475 1.91067C58.2604 1.84794 58.171 1.78678 58.0808 1.72718C58.0659 1.71777 58.0518 1.70758 58.0361 1.69974C57.9444 1.64015 57.8526 1.58447 57.7616 1.53037C57.7522 1.52488 57.7436 1.51939 57.735 1.5139C57.724 1.50685 57.7114 1.50136 57.7004 1.49587C57.6157 1.44725 57.5295 1.40021 57.444 1.35394C57.411 1.33748 57.3789 1.32101 57.3451 1.30376C57.2746 1.26769 57.2032 1.23476 57.1326 1.20104C57.0824 1.17752 57.033 1.15399 56.9828 1.13282C56.9302 1.1093 56.8769 1.08734 56.8244 1.06617C56.7561 1.03716 56.6871 1.00893 56.6173 0.983053C56.5843 0.970507 56.5506 0.95953 56.5177 0.946984C56.4306 0.914835 56.3428 0.884254 56.2557 0.85681C56.2408 0.851321 56.2236 0.8474 56.2087 0.842696C56.1043 0.809763 56.0008 0.779182 55.8965 0.750954C55.8949 0.750954 55.8934 0.750954 55.8926 0.749385C55.5443 0.657643 55.193 0.590993 54.8408 0.549435C54.8322 0.547866 54.8243 0.547866 54.8157 0.546298C54.709 0.53532 54.6008 0.524343 54.4933 0.517286C54.4612 0.514149 54.4298 0.514149 54.3976 0.511797C54.3145 0.507876 54.2314 0.503171 54.1474 0.500819C54.0847 0.499251 54.0227 0.500819 53.9584 0.500819C53.9074 0.500819 53.8541 0.499251 53.8016 0.500819C53.7082 0.503956 53.6157 0.507876 53.5223 0.513365C53.5004 0.514933 53.4776 0.516501 53.4557 0.517286C52.8753 0.556492 52.2949 0.6647 51.7262 0.845048C51.7153 0.848184 51.7043 0.852105 51.6933 0.854457C51.6 0.88347 51.5098 0.915619 51.4188 0.948552C51.3898 0.95953 51.3592 0.969723 51.3302 0.980701C51.258 1.00815 51.1858 1.03794 51.1137 1.06695C51.0651 1.08813 51.0149 1.10851 50.9654 1.12968C50.9129 1.15321 50.8611 1.17673 50.8086 1.20182C50.7396 1.23397 50.6698 1.2669 50.6015 1.30141C50.567 1.31787 50.5325 1.33591 50.4988 1.35394C50.4125 1.39864 50.3278 1.44568 50.2446 1.49273C50.2337 1.49979 50.2211 1.50528 50.2101 1.51233C50.2007 1.51782 50.1921 1.52331 50.1827 1.5288C50.0909 1.58291 49.9992 1.63858 49.909 1.6966C49.8941 1.70601 49.8784 1.71621 49.8619 1.72718C49.7733 1.78521 49.6854 1.8448 49.5999 1.90753C49.5835 1.92008 49.5654 1.93262 49.549 1.9436C49.4682 2.00163 49.3905 2.06279 49.3129 2.12395C49.2893 2.14198 49.2674 2.16002 49.2439 2.17805C49.1772 2.23373 49.1121 2.2894 49.0454 2.34742C49.0148 2.37408 48.9827 2.40153 48.9521 2.42897C48.898 2.47602 48.8462 2.5262 48.7952 2.57482C48.7537 2.61481 48.7121 2.65401 48.6713 2.694C48.6305 2.73399 48.5952 2.7732 48.5576 2.81319C48.5066 2.86573 48.4564 2.91905 48.4062 2.97315C48.3795 3.00216 48.3552 3.03274 48.3285 3.06332C48.2705 3.12998 48.2117 3.19819 48.1568 3.26563C48.1403 3.2868 48.1238 3.30875 48.1058 3.32914C48.0431 3.40834 47.9819 3.4891 47.9223 3.56908C47.9113 3.58555 47.9003 3.60123 47.8893 3.6177C47.8258 3.70474 47.7646 3.79413 47.7058 3.8843C47.6964 3.89841 47.6862 3.91331 47.6768 3.92899C47.6187 4.01917 47.5615 4.11091 47.5074 4.20344C47.5019 4.21285 47.4964 4.22147 47.4909 4.2301L42.3551 13.0765L37.2735 4.32419C38.5253 6.55972 38.599 9.37785 37.2194 11.7537L30.7361 22.9188L35.8735 31.7637C37.2147 34.0729 39.6837 35.4953 42.3559 35.4953C45.0281 35.4953 47.4972 34.0729 48.8384 31.7637L53.9757 22.9173L59.055 31.6665C57.8055 29.4325 57.7334 26.6136 59.1122 24.2393L65.5947 13.075L60.4589 4.22853C60.4534 4.2199 60.4479 4.21206 60.4424 4.20187L60.4385 4.20657ZM48.1623 25.4719C44.0359 25.4719 40.69 22.1261 40.69 18.0008C40.69 13.8756 44.0352 10.5297 48.1623 10.5297C52.2894 10.5297 55.6353 13.8756 55.6353 18.0008C55.6353 22.1261 52.2902 25.4719 48.1623 25.4719Z" fill="#D4BFF6" fill-opacity="0.5"/>
<path d="M19.1156 35.4984C16.4441 35.4984 13.9743 34.0768 12.6331 31.7668L1.01412 11.7568C-1.06434 8.1781 0.15372 3.59178 3.73338 1.51386C7.31382 -0.564059 11.9005 0.65368 13.979 4.23241L19.1156 13.0781L24.2521 4.23241C26.3306 0.65368 30.9173 -0.564059 34.4977 1.51386C38.0782 3.59178 39.2954 8.17731 37.217 11.7568L25.598 31.7668C24.2568 34.0768 21.787 35.4984 19.1156 35.4984Z" fill="white"/>
<path d="M65.5845 35.5C64.3068 35.5 63.0127 35.173 61.8283 34.4861C58.2479 32.4082 57.0306 27.8227 59.1091 24.2432L70.7281 4.23319C72.8065 0.653678 77.3933 -0.563277 80.9737 1.51464C84.5541 3.59256 85.7714 8.1781 83.693 11.7576L72.074 31.7676C70.6834 34.1631 68.1688 35.5 65.5845 35.5Z" fill="white"/>
<path d="M48.163 25.4711C52.2903 25.4711 55.6361 22.1262 55.6361 18C55.6361 13.8739 52.2903 10.5289 48.163 10.5289C44.0358 10.5289 40.69 13.8739 40.69 18C40.69 22.1262 44.0358 25.4711 48.163 25.4711Z" fill="white"/>
</svg>
