<svg width="150" height="62" viewBox="0 0 150 62" fill="none" xmlns="http://www.w3.org/2000/svg">
<path d="M106.628 6.67143C106.532 6.50685 106.431 6.34642 106.329 6.18737C106.312 6.16109 106.294 6.13343 106.277 6.10854C106.175 5.94949 106.067 5.79321 105.956 5.63831C105.937 5.61203 105.915 5.5816 105.896 5.55256C105.79 5.41011 105.682 5.27042 105.572 5.13212C105.543 5.0934 105.514 5.05329 105.482 5.01733C105.384 4.89701 105.284 4.77807 105.18 4.6619C105.133 4.60796 105.087 4.55125 105.04 4.50008C104.955 4.40465 104.866 4.31199 104.776 4.21794C104.707 4.14741 104.642 4.07549 104.57 4.00496C104.501 3.93581 104.427 3.86804 104.357 3.79889C104.264 3.71038 104.173 3.62325 104.077 3.5375C104.023 3.49047 103.969 3.44483 103.915 3.39505C103.798 3.29409 103.68 3.19451 103.56 3.09631C103.522 3.0645 103.481 3.03546 103.445 3.00365C103.305 2.89301 103.165 2.78513 103.024 2.68279C102.995 2.66066 102.966 2.6413 102.939 2.62194C102.785 2.51129 102.627 2.40342 102.468 2.29831C102.442 2.28171 102.417 2.26373 102.389 2.2499C102.227 2.14479 102.065 2.0466 101.905 1.95117C101.888 1.94149 101.873 1.93181 101.858 1.92213C101.838 1.90968 101.816 1.9 101.797 1.89032C101.648 1.80457 101.495 1.72159 101.345 1.63999C101.286 1.61095 101.23 1.5819 101.17 1.55148C101.046 1.48786 100.92 1.42977 100.795 1.3703C100.707 1.32881 100.619 1.28732 100.531 1.24998C100.438 1.20849 100.344 1.16976 100.251 1.13242C100.131 1.08125 100.009 1.03146 99.8861 0.985821C99.8279 0.963693 99.7684 0.944331 99.7103 0.922202C99.5567 0.865498 99.4018 0.811561 99.2482 0.763155C99.2219 0.753474 99.1914 0.746558 99.1651 0.73826C98.9811 0.680173 98.7984 0.626236 98.6144 0.576447C98.6116 0.576447 98.6089 0.576447 98.6075 0.573681C97.9931 0.411867 97.3732 0.29431 96.7519 0.22101C96.7367 0.218244 96.7229 0.218244 96.7076 0.215478C96.5195 0.196116 96.3285 0.176753 96.1389 0.164306C96.0822 0.158774 96.0268 0.158774 95.9701 0.154625C95.8234 0.14771 95.6768 0.139412 95.5287 0.135263C95.418 0.132497 95.3087 0.135263 95.1952 0.135263C95.1053 0.135263 95.0112 0.132497 94.9185 0.135263C94.7538 0.140795 94.5905 0.14771 94.4259 0.157391C94.3871 0.160157 94.347 0.162923 94.3083 0.164306C93.2843 0.233457 92.2603 0.424314 91.2571 0.742409C91.2378 0.747941 91.2184 0.754857 91.199 0.759006C91.0344 0.810178 90.8752 0.866881 90.7147 0.924968C90.6635 0.944331 90.6096 0.96231 90.5584 0.981672C90.4311 1.03008 90.3037 1.08263 90.1764 1.1338C90.0907 1.17115 90.0021 1.2071 89.9149 1.24445C89.8222 1.28594 89.7309 1.32743 89.6382 1.37168C89.5164 1.42839 89.3933 1.48648 89.2729 1.54733C89.212 1.57637 89.1511 1.60818 89.0916 1.63999C88.9394 1.71882 88.7899 1.8018 88.6433 1.88479C88.6239 1.89723 88.6018 1.90691 88.5824 1.91936C88.5658 1.92904 88.5506 1.93872 88.534 1.9484C88.3721 2.04383 88.2102 2.14203 88.051 2.24437C88.0248 2.26097 87.9971 2.27895 87.968 2.29831C87.8117 2.40065 87.6567 2.50576 87.5059 2.6164C87.4768 2.63853 87.445 2.66066 87.4159 2.68002C87.2734 2.78237 87.1364 2.89024 86.9994 2.99812C86.9579 3.02993 86.9191 3.06174 86.8776 3.09355C86.76 3.19174 86.6452 3.28994 86.5276 3.39228C86.4736 3.4393 86.4169 3.48771 86.3629 3.53611C86.2674 3.6191 86.1761 3.70761 86.0861 3.79336C86.0128 3.86389 85.9395 3.93304 85.8675 4.00358C85.7956 4.07411 85.7333 4.14326 85.6669 4.2138C85.5769 4.30646 85.4884 4.4005 85.3998 4.49593C85.3528 4.5471 85.3099 4.60104 85.2628 4.65498C85.1604 4.77254 85.0567 4.89286 84.9598 5.0118C84.9307 5.04914 84.9017 5.08787 84.8699 5.12382C84.7592 5.26351 84.6512 5.40596 84.5461 5.54703C84.5267 5.57607 84.5073 5.60373 84.4879 5.63278C84.3759 5.78629 84.2679 5.94396 84.1642 6.103C84.1475 6.1279 84.1296 6.15418 84.113 6.18184C84.0106 6.34088 83.9095 6.5027 83.8141 6.66589C83.8044 6.68249 83.7947 6.6977 83.785 6.71292L74.7244 22.3162L65.7592 6.87888C67.9676 10.8219 68.0977 15.7925 65.6637 19.983L54.2258 39.6759L63.2892 55.2764C65.6554 59.3494 70.0114 61.8582 74.7258 61.8582C79.4401 61.8582 83.7961 59.3494 86.1623 55.2764L95.2257 39.6731L104.187 55.1049C101.982 51.1646 101.855 46.1927 104.288 42.0049L115.724 22.3134L106.664 6.71015C106.654 6.69494 106.644 6.68111 106.634 6.66313L106.628 6.67143ZM84.9695 44.179C77.6897 44.179 71.7867 38.2776 71.7867 31.0016C71.7867 23.7255 77.6883 17.8241 84.9695 17.8241C92.2507 17.8241 98.1536 23.7255 98.1536 31.0016C98.1536 38.2776 92.252 44.179 84.9695 44.179Z" fill="#41137E"/>
<path d="M33.7245 61.8637C29.0115 61.8637 24.6542 59.3563 22.288 55.2819L1.78947 19.9885C-1.87741 13.6764 0.27152 5.58711 6.58685 1.9221C12.9036 -1.74291 20.9956 0.404926 24.6625 6.71704L33.7245 22.3189L42.7865 6.71704C46.4534 0.404926 54.5454 -1.74291 60.8622 1.9221C67.1789 5.58711 69.3264 13.675 65.6595 19.9885L45.161 55.2819C42.7948 59.3563 38.4375 61.8637 33.7245 61.8637Z" fill="white"/>
<path d="M115.706 61.8666C113.452 61.8666 111.169 61.2899 109.079 60.0783C102.763 56.4133 100.615 48.3254 104.282 42.0119L124.781 6.71857C128.447 0.405068 136.54 -1.74138 142.856 1.92363C149.173 5.58864 151.32 13.6766 147.654 19.9901L127.155 55.2834C124.702 59.5085 120.266 61.8666 115.706 61.8666Z" fill="white"/>
<path d="M84.9708 44.1776C92.2522 44.1776 98.1549 38.2779 98.1549 31.0002C98.1549 23.7225 92.2522 17.8228 84.9708 17.8228C77.6894 17.8228 71.7866 23.7225 71.7866 31.0002C71.7866 38.2779 77.6894 44.1776 84.9708 44.1776Z" fill="white"/>
</svg>
