<svg width="30" height="22" viewBox="0 0 30 22" fill="none" xmlns="http://www.w3.org/2000/svg">
<g clip-path="url(#clip0_265_3886)">
<path d="M28.8942 3.43619C28.5623 2.08476 27.5796 1.01968 26.3293 0.656508C24.0673 0 15 0 15 0C15 0 5.93267 0 3.67067 0.656508C2.42367 1.01968 1.44089 2.08127 1.10578 3.43619C0.5 5.88762 0.5 11 0.5 11C0.5 11 0.5 16.1124 1.10578 18.5638C1.43767 19.9152 2.42044 20.9803 3.67067 21.3435C5.93267 22 15 22 15 22C15 22 24.0673 22 26.3293 21.3435C27.5763 20.9803 28.5591 19.9187 28.8942 18.5638C29.5 16.1124 29.5 11 29.5 11C29.5 11 29.5 5.88762 28.8942 3.43619ZM12.1 15.7143V6.28571L19.6336 11L12.1 15.7143Z" fill="#D4BFF6"/>
</g>
<defs>
<clipPath id="clip0_265_3886">
<rect width="29" height="22" fill="white" transform="translate(0.5)"/>
</clipPath>
</defs>
</svg>
